<svg width="186" height="33" viewBox="0 0 186 33" fill="none" xmlns="http://www.w3.org/2000/svg">
<path d="M0.452 32V29.536L4.5 28.568V4.632L0.452 3.664V1.2H13.652C18.9907 1.2 23.068 2.62266 25.884 5.468C28.7293 8.284 30.152 11.9947 30.152 16.6C30.152 21.4987 28.656 25.2973 25.664 27.996C22.672 30.6653 18.668 32 13.652 32H0.452ZM11.672 28.612H12.992C16.1893 28.612 18.624 27.5707 20.296 25.488C21.9973 23.4053 22.848 20.4427 22.848 16.6C22.848 12.728 21.9973 9.76533 20.296 7.712C18.624 5.62933 16.1893 4.588 12.992 4.588H11.672V28.612ZM33.891 16.6C33.891 11.848 35.1963 7.99067 37.807 5.028C40.447 2.036 44.2016 0.539999 49.071 0.539999C53.8816 0.539999 57.607 2.00667 60.247 4.94C62.9163 7.87333 64.251 11.76 64.251 16.6C64.251 21.4107 62.9163 25.2973 60.247 28.26C57.607 31.1933 53.8816 32.66 49.071 32.66C44.2603 32.66 40.5203 31.208 37.851 28.304C35.211 25.3707 33.891 21.4693 33.891 16.6ZM49.071 29.624C51.623 29.624 53.559 28.4947 54.879 26.236C56.199 23.948 56.859 20.736 56.859 16.6C56.859 12.464 56.1843 9.26667 54.835 7.008C53.515 4.72 51.5936 3.576 49.071 3.576C46.519 3.576 44.583 4.72 43.263 7.008C41.943 9.26667 41.283 12.464 41.283 16.6C41.283 20.736 41.9283 23.948 43.219 26.236C44.539 28.4947 46.4896 29.624 49.071 29.624ZM67.1395 32V29.536L71.1875 28.568V4.632L67.1395 3.664V1.2H80.9115C84.9888 1.2 88.0395 1.948 90.0635 3.444C92.1168 4.91066 93.1435 7.008 93.1435 9.736C93.1435 11.584 92.6155 13.1973 91.5595 14.576C90.5035 15.9547 89.0515 16.9227 87.2035 17.48L93.3635 28.612L97.5875 29.668V32H86.8955L79.8995 18.668H78.3595V28.568L82.1875 29.536V32H67.1395ZM78.3595 15.588H79.6355C81.6888 15.588 83.2582 15.06 84.3435 14.004C85.4288 12.948 85.9715 11.5253 85.9715 9.736C85.9715 8.12266 85.4142 6.832 84.2995 5.864C83.1848 4.896 81.6155 4.412 79.5915 4.412H78.3595V15.588ZM98.5497 32V29.536L102.598 28.568V4.632L98.5497 3.664V1.2H121.914V10.22H119.318L117.558 4.588H109.77V14.796L117.954 14.048V18.404L109.77 17.744V28.612H117.646L120.638 22.496H123.234L121.914 32H98.5497ZM126.969 30.592V22.496H129.433L131.677 28.656C132.909 29.096 134.449 29.316 136.297 29.316C138.291 29.316 140.007 28.964 141.445 28.26C142.911 27.556 143.645 26.5147 143.645 25.136C143.645 24.8133 143.601 24.5053 143.513 24.212C143.454 23.9187 143.337 23.64 143.161 23.376C142.985 23.112 142.809 22.8773 142.633 22.672C142.457 22.4373 142.193 22.2027 141.841 21.968C141.489 21.704 141.181 21.4987 140.917 21.352C140.653 21.176 140.257 20.956 139.729 20.692C139.23 20.428 138.335 19.988 137.045 19.372L135.461 18.624C132.557 17.216 130.474 15.7493 129.213 14.224C127.951 12.6693 127.321 10.7627 127.321 8.504C127.321 6.09866 128.318 4.17733 130.312 2.74C132.307 1.27333 134.889 0.539999 138.057 0.539999C141.606 0.539999 144.803 0.994665 147.649 1.904V10H145.185L143.029 4.104C141.826 3.84 140.667 3.708 139.553 3.708C137.822 3.708 136.341 4.016 135.109 4.632C133.877 5.21866 133.261 6.084 133.261 7.228C133.261 8.25467 133.745 9.12 134.713 9.824C135.71 10.4987 137.47 11.3933 139.993 12.508L140.873 12.904C143.865 14.2533 146.065 15.7493 147.473 17.392C148.881 19.0347 149.585 21.0293 149.585 23.376C149.585 25.576 149.027 27.38 147.913 28.788C146.827 30.1667 145.39 31.164 143.601 31.78C141.811 32.3667 139.773 32.66 137.485 32.66C133.847 32.66 130.342 31.9707 126.969 30.592ZM151.544 3.664V1.2H166.812V3.664L162.764 4.632V20.472C162.764 26.104 165.096 28.92 169.76 28.92C172.048 28.92 173.882 28.216 175.26 26.808C176.668 25.3707 177.372 23.2587 177.372 20.472V4.632L173.324 3.664V1.2H185.028V3.664L180.98 4.632V20.472C180.98 24.4027 179.792 27.424 177.416 29.536C175.07 31.6187 172.092 32.66 168.484 32.66C164.73 32.66 161.635 31.6187 159.2 29.536C156.795 27.424 155.592 24.4027 155.592 20.472V4.632L151.544 3.664Z" fill="#484848"/>
</svg>
