<svg width="24" height="15" viewBox="0 0 24 15" fill="none" xmlns="http://www.w3.org/2000/svg">
<path d="M12.0006 0C7.3765 0 3.122 2.23691 0.326736 6.13749C0.114745 6.43425 0 6.79647 0 7.1689C0 7.54134 0.114745 7.90355 0.326736 8.20031C3.1212 12.1017 7.3765 14.3387 12.0006 14.3387C16.6247 14.3387 20.8792 12.1017 23.6745 8.20116C23.8865 7.9044 24.0012 7.54218 24.0012 7.16975C24.0012 6.79732 23.8865 6.4351 23.6745 6.13834C20.88 2.23691 16.6247 0 12.0006 0ZM22.4017 7.17187C19.9112 10.647 16.1199 12.641 12.0006 12.641C7.88132 12.641 4.09003 10.647 1.59957 7.16678C4.09003 3.69167 7.88132 1.69764 12.0006 1.69764C16.1199 1.69764 19.9112 3.69167 22.4017 7.16678V7.17187Z" fill="#737373"/>
<path d="M12.0006 2.198C10.7589 2.19935 9.56852 2.72353 8.69055 3.65553C7.81258 4.58752 7.31878 5.85119 7.3175 7.16922C7.31878 8.48726 7.81258 9.75093 8.69055 10.6829C9.56852 11.6149 10.7589 12.1391 12.0006 12.1404C13.2422 12.1391 14.4326 11.6149 15.3106 10.6829C16.1886 9.75093 16.6824 8.48726 16.6836 7.16922C16.6824 5.85119 16.1886 4.58752 15.3106 3.65553C14.4326 2.72353 13.2422 2.19935 12.0006 2.198ZM12.0006 10.442C11.1831 10.4411 10.3994 10.096 9.82142 9.48246C9.24341 8.86889 8.91831 8.03695 8.91746 7.16922C8.91831 6.30149 9.24341 5.46956 9.82142 4.85598C10.3994 4.2424 11.1831 3.8973 12.0006 3.8964C12.818 3.8973 13.6017 4.2424 14.1797 4.85598C14.7577 5.46956 15.0828 6.30149 15.0837 7.16922C15.0828 8.03695 14.7577 8.86889 14.1797 9.48246C13.6017 10.096 12.818 10.4411 12.0006 10.442Z" fill="#737373"/>
</svg>
