<svg width="48" height="48" viewBox="0 0 48 48" fill="none" xmlns="http://www.w3.org/2000/svg">
<g clip-path="url(#clip0_2_3780)">
<path d="M10 26C10 31.514 14.486 36 20 36H38V32H20C16.691 32 14 29.309 14 26V24H38L44 6H4V10H10V26Z" fill="black"/>
<path d="M18 44C19.1046 44 20 43.1046 20 42C20 40.8954 19.1046 40 18 40C16.8954 40 16 40.8954 16 42C16 43.1046 16.8954 44 18 44Z" fill="black"/>
<path d="M30 44C31.1046 44 32 43.1046 32 42C32 40.8954 31.1046 40 30 40C28.8954 40 28 40.8954 28 42C28 43.1046 28.8954 44 30 44Z" fill="black"/>
</g>
<defs>
<clipPath id="clip0_2_3780">
<rect width="48" height="48" fill="white"/>
</clipPath>
</defs>
</svg>
