<svg width="26" height="26" viewBox="0 0 26 26" fill="none" xmlns="http://www.w3.org/2000/svg">
<path d="M1.08325 1.08337H5.41658L8.31992 15.5892C8.41898 16.088 8.69032 16.536 9.08643 16.8549C9.48253 17.1737 9.97817 17.3431 10.4866 17.3334H21.0166C21.525 17.3431 22.0206 17.1737 22.4167 16.8549C22.8129 16.536 23.0842 16.088 23.1832 15.5892L24.9166 6.50004H6.49992M10.8333 22.75C10.8333 23.3483 10.3482 23.8334 9.74992 23.8334C9.15161 23.8334 8.66658 23.3483 8.66658 22.75C8.66658 22.1517 9.15161 21.6667 9.74992 21.6667C10.3482 21.6667 10.8333 22.1517 10.8333 22.75ZM22.7499 22.75C22.7499 23.3483 22.2649 23.8334 21.6666 23.8334C21.0683 23.8334 20.5833 23.3483 20.5833 22.75C20.5833 22.1517 21.0683 21.6667 21.6666 21.6667C22.2649 21.6667 22.7499 22.1517 22.7499 22.75Z" stroke="#1E1E1E" stroke-width="2" stroke-linecap="round" stroke-linejoin="round"/>
</svg>
