<svg width="82" height="21" viewBox="0 0 82 21" fill="none" xmlns="http://www.w3.org/2000/svg">
<path fill-rule="evenodd" clip-rule="evenodd" d="M10.8178 8.12958L8.96883 0.457764L7.11987 8.12958H0.854248L5.92354 13.0961L4.04212 20.9081L8.96883 16.0804L13.8955 20.9081L12.0141 13.0961L17.0834 8.12958H10.8178Z" fill="#FCA120"/>
<path fill-rule="evenodd" clip-rule="evenodd" d="M27.047 8.12958L25.1981 0.457764L23.3491 8.12958H17.0835L22.1528 13.0961L20.2714 20.9081L25.1981 16.0804L30.1248 20.9081L28.2434 13.0961L33.3127 8.12958H27.047Z" fill="#FCA120"/>
<path fill-rule="evenodd" clip-rule="evenodd" d="M43.276 8.12958L41.4271 0.457764L39.5781 8.12958H33.3125L38.3818 13.0961L36.5004 20.9081L41.4271 16.0804L46.3538 20.9081L44.4724 13.0961L49.5417 8.12958H43.276Z" fill="#FCA120"/>
<path fill-rule="evenodd" clip-rule="evenodd" d="M59.5053 8.12958L57.6563 0.457764L55.8074 8.12958H49.5417L54.611 13.0961L52.7296 20.9081L57.6563 16.0804L62.583 20.9081L60.7016 13.0961L65.7709 8.12958H59.5053Z" fill="#FCA120"/>
<path d="M75.2485 8.24673L75.3407 8.62958H75.7345H80.7754L76.581 12.7389L76.3784 12.9374L76.4448 13.2132L77.9185 19.3322L74.2355 15.7233L73.8856 15.3804L73.5356 15.7233L69.8527 19.3322L71.3264 13.2132L71.3928 12.9374L71.1902 12.7389L66.9958 8.62958H72.0366H72.4304L72.5227 8.24673L73.8856 2.59179L75.2485 8.24673Z" stroke="#FCA120"/>
</svg>
