<svg width="288" height="141" viewBox="0 0 288 141" fill="none" xmlns="http://www.w3.org/2000/svg">
<path fill-rule="evenodd" clip-rule="evenodd" d="M246.883 95.3068V107.258H221.203V128.049H250.093V140H207.005V63.5278H250.093V75.4788H221.203V95.3068H246.883ZM220.203 74.4788H249.093V64.5278H208.005V139H249.093V129.049H220.203V106.258H245.883V96.3068H220.203V74.4788Z" fill="#484848"/>
<path fill-rule="evenodd" clip-rule="evenodd" d="M204.689 128.156V140H165.346V63.6348H179.544V128.156H204.689ZM178.544 129.156V64.6348H166.346V139H203.689V129.156H178.544Z" fill="#484848"/>
<path fill-rule="evenodd" clip-rule="evenodd" d="M147.807 139L142.457 123.806H111.32L105.97 139H93.2367L119.88 64.5278H134.004L160.647 139H147.807ZM112.028 124.806L106.678 140H91.8169L119.175 63.5278H134.708L162.067 140H147.099L141.749 124.806H112.028ZM126.942 79.2938L114.744 113.855H139.033L126.942 79.2938ZM126.938 82.3102L116.157 112.855H137.623L126.938 82.3102Z" fill="#484848"/>
<path fill-rule="evenodd" clip-rule="evenodd" d="M49.5527 138.097L49.5459 138.094C45.4066 136.246 42.1199 133.642 39.7226 130.27C37.309 126.876 36.1135 122.925 36.1135 118.456V117.456H51.0826L51.1636 118.367C51.4284 121.347 52.5741 123.75 54.5899 125.638C56.6359 127.489 59.5404 128.477 63.4355 128.477C67.4892 128.477 70.5093 127.517 72.626 125.724C74.7536 123.851 75.8105 121.49 75.8105 118.563C75.8105 116.282 75.1337 114.51 73.8402 113.154L73.8318 113.146L73.8236 113.137C72.5131 111.695 70.8294 110.565 68.7455 109.758L68.7351 109.754C66.6526 108.921 63.7034 108.006 59.8676 107.012L59.8626 107.011C54.9875 105.72 50.9806 104.423 47.8554 103.114L47.8423 103.109L47.8294 103.103C44.6737 101.675 41.9781 99.4988 39.7449 96.5956C37.4329 93.59 36.3275 89.6443 36.3275 84.8579C36.3275 80.4029 37.4441 76.4602 39.7055 73.0682C41.9602 69.686 45.1109 67.1076 49.1194 65.3261C53.1223 63.547 57.7236 62.6719 62.9005 62.6719C70.2739 62.6719 76.3925 64.5355 81.1723 68.3417C86.0471 72.0946 88.7368 77.2838 89.2564 83.8156L89.3422 84.8949H73.8534L73.7806 83.9736C73.5907 81.5681 72.4629 79.4898 70.2923 77.7138C68.1602 75.9694 65.3005 75.0509 61.6165 75.0509C58.2954 75.0509 55.6798 75.895 53.6843 77.5043C51.7519 79.0627 50.7395 81.3188 50.7395 84.4299C50.7395 86.4894 51.3412 88.1244 52.4975 89.4116C53.8129 90.7216 55.471 91.7873 57.4939 92.5964C59.5816 93.4315 62.4637 94.347 66.1565 95.3413L66.162 95.3427C71.1078 96.7046 75.1527 98.0746 78.2812 99.4567C81.5808 100.882 84.3526 103.095 86.59 106.074C88.9759 109.082 90.1155 113.066 90.1155 117.921C90.1155 121.892 89.0267 125.638 86.8678 129.139C84.764 132.668 81.6587 135.496 77.5979 137.637L77.5919 137.641C73.57 139.726 68.8401 140.749 63.4355 140.749C58.3268 140.749 53.6959 139.873 49.5596 138.1L49.5527 138.097ZM86.0125 128.621C88.0812 125.268 89.1155 121.702 89.1155 117.921C89.1155 113.213 88.0099 109.468 85.7985 106.686C83.6585 103.833 81.0192 101.728 77.8805 100.373C74.8132 99.0175 70.8185 97.6622 65.8965 96.3069C62.1872 95.3082 59.2625 94.3809 57.1225 93.5249C54.9825 92.6689 53.1992 91.5275 51.7725 90.1009C50.4172 88.6029 49.7395 86.7125 49.7395 84.4299C49.7395 81.0772 50.8452 78.5092 53.0565 76.7259C55.2679 74.9425 58.1212 74.0509 61.6165 74.0509C65.4685 74.0509 68.5715 75.0139 70.9255 76.9399C73.2795 78.8659 74.5635 81.1842 74.7775 83.8949H88.2595C88.2327 83.5576 88.1999 83.2243 88.1611 82.8949C87.4783 77.0926 84.9431 72.5039 80.5555 69.1289C75.9902 65.4909 70.1052 63.6719 62.9005 63.6719C57.8359 63.6719 53.3775 64.5279 49.5255 66.2399C45.6735 67.9519 42.6775 70.4129 40.5375 73.6229C38.3975 76.8329 37.3275 80.5779 37.3275 84.8579C37.3275 89.4945 38.3975 93.2039 40.5375 95.9859C42.6775 98.7679 45.2455 100.837 48.2415 102.192C51.3089 103.476 55.2679 104.76 60.1185 106.044C63.9705 107.043 66.9665 107.97 69.1065 108.826C71.3179 109.682 73.1369 110.895 74.5635 112.464C76.0615 114.033 76.8105 116.066 76.8105 118.563C76.8105 121.773 75.6335 124.412 73.2795 126.481C70.9255 128.478 67.6442 129.477 63.4355 129.477C59.3695 129.477 56.1952 128.443 53.9125 126.374C51.7012 124.305 50.4529 121.666 50.1675 118.456H37.1135C37.1135 118.793 37.1206 119.126 37.1347 119.456C37.3001 123.322 38.4344 126.733 40.5375 129.691C42.8202 132.901 45.9589 135.398 49.9535 137.181C53.9482 138.893 58.4422 139.749 63.4355 139.749C68.7142 139.749 73.2795 138.75 77.1315 136.753C81.0549 134.684 84.0152 131.974 86.0125 128.621Z" fill="#484848"/>
<path d="M268.735 6.99587V20.8679H285.055V27.1919H268.735V41.6759H287.095V47.9999H260.983V0.671875H287.095V6.99587H268.735Z" fill="#484848"/>
<path d="M255.852 0.73999V7.06399H243.272V48H235.52V7.06399H222.872V0.73999H255.852Z" fill="#484848"/>
<path d="M209.118 38.3439H189.33L185.93 47.9999H177.838L194.77 0.671875H203.746L220.678 47.9999H212.518L209.118 38.3439ZM206.942 32.0199L199.258 10.0559L191.506 32.0199H206.942Z" fill="#484848"/>
<path d="M173.157 0.73999V48H165.405V15.632L150.989 48H145.617L131.133 15.632V48H123.381V0.73999H131.745L148.337 37.8L164.861 0.73999H173.157Z" fill="#484848"/>
<path d="M115.923 0.73999V48H108.171V0.73999H115.923Z" fill="#484848"/>
<path d="M103.04 0.73999V7.06399H90.4603V48H82.7083V7.06399H70.0603V0.73999H103.04Z" fill="#484848"/>
<path d="M52.7654 41.744H68.7454V48H45.0134V0.73999H52.7654V41.744Z" fill="#484848"/>
<path d="M8.46831 0.73999V30.864C8.46831 34.4453 9.39764 37.1427 11.2563 38.956C13.1603 40.7693 15.7896 41.676 19.1443 41.676C22.5443 41.676 25.1736 40.7693 27.0323 38.956C28.9363 37.1427 29.8883 34.4453 29.8883 30.864V0.73999H37.6403V30.728C37.6403 34.5813 36.8016 37.8453 35.1243 40.52C33.447 43.1947 31.203 45.1893 28.3923 46.504C25.5816 47.8187 22.4763 48.476 19.0763 48.476C15.6763 48.476 12.571 47.8187 9.76031 46.504C6.99498 45.1893 4.79631 43.1947 3.16431 40.52C1.53231 37.8453 0.716309 34.5813 0.716309 30.728V0.73999H8.46831Z" fill="#484848"/>
</svg>
